<?xml version="1.0" encoding="UTF-8"?>
<svg width="24px" height="24px" viewBox="0 0 24 24" version="1.1" xmlns="http://www.w3.org/2000/svg" xmlns:xlink="http://www.w3.org/1999/xlink">
    <!-- Generator: Sketch 59.1 (86144) - https://sketch.com -->
    <title>order</title>
    <desc>Created with Sketch.</desc>
    <g id="Page-1" stroke="none" stroke-width="1" fill="none" fill-rule="evenodd">
        <g id="Tablet" transform="translate(-728.000000, -16.000000)" fill="#FFFFFF" fill-rule="nonzero">
            <g id="order" transform="translate(728.000000, 16.000000)">
                <path d="M23.7663458,17.4789966 C23.5758102,17.2882983 23.2665763,17.2882983 23.076122,17.4789966 L18.2344678,22.3205695 L18.2344678,0.488135593 C18.2344678,0.21860339 18.0158644,-7.10542736e-15 17.7463322,-7.10542736e-15 C17.4768,-7.10542736e-15 17.2581966,0.21860339 17.2581966,0.488135593 L17.2581966,22.3204881 L12.416461,17.4788339 C12.2259254,17.2882983 11.9167729,17.2882169 11.7261559,17.4789153 C11.535539,17.6695322 11.535539,17.9786034 11.7262373,18.1692203 L17.4012203,23.844122 C17.4964881,23.9393898 17.6214508,23.9870644 17.7463322,23.9870644 C17.8712136,23.9870644 17.9961763,23.9393898 18.0914441,23.8440407 L23.7663458,18.169139 C23.9570441,17.9786034 23.9570441,17.6695322 23.7663458,17.4789966 Z" id="Path"></path>
                <path d="M0.565911864,0.976271186 L15.2211254,0.976271186 C15.4906576,0.976271186 15.709261,0.757667797 15.709261,0.488135593 C15.709261,0.21860339 15.4906576,-1.64313008e-14 15.2211254,-1.64313008e-14 L0.565911864,-1.64313008e-14 C0.296379661,-1.64313008e-14 0.0777762712,0.21860339 0.0777762712,0.488135593 C0.0777762712,0.757667797 0.296379661,0.976271186 0.565911864,0.976271186 Z" id="Path"></path>
                <path d="M0.565911864,6.69254237 L15.2211254,6.69254237 C15.4906576,6.69254237 15.709261,6.47393898 15.709261,6.20440678 C15.709261,5.93487458 15.4906576,5.71627119 15.2211254,5.71627119 L0.565911864,5.71627119 C0.296379661,5.71627119 0.0777762712,5.93487458 0.0777762712,6.20440678 C0.0777762712,6.47393898 0.296379661,6.69254237 0.565911864,6.69254237 Z" id="Path"></path>
                <path d="M0.565911864,12.4088136 L15.2211254,12.4088136 C15.4906576,12.4088136 15.709261,12.1902102 15.709261,11.920678 C15.709261,11.6511458 15.4906576,11.4325424 15.2211254,11.4325424 L0.565911864,11.4325424 C0.296379661,11.4325424 0.0777762712,11.6511458 0.0777762712,11.920678 C0.0777762712,12.1902102 0.296379661,12.4088136 0.565911864,12.4088136 Z" id="Path"></path>
                <path d="M10.1237695,17.1488136 L0.565911864,17.1488136 C0.296379661,17.1488136 0.0777762712,17.3674169 0.0777762712,17.6369492 C0.0777762712,17.9064814 0.296379661,18.1250847 0.565911864,18.1250847 L10.1237695,18.1250847 C10.3933017,18.1250847 10.6119051,17.9064814 10.6119051,17.6369492 C10.6119051,17.3674169 10.3933831,17.1488136 10.1237695,17.1488136 Z" id="Path"></path>
                <path d="M10.1237695,22.8650847 L0.565911864,22.8650847 C0.296379661,22.8650847 0.0777762712,23.0836881 0.0777762712,23.3532203 C0.0777762712,23.6227525 0.296379661,23.8413559 0.565911864,23.8413559 L10.1237695,23.8413559 C10.3933017,23.8413559 10.6119051,23.6227525 10.6119051,23.3532203 C10.6119051,23.0836881 10.3933831,22.8650847 10.1237695,22.8650847 Z" id="Path"></path>
            </g>
        </g>
    </g>
</svg>