<?xml version="1.0" encoding="UTF-8"?>
<svg width="24px" height="24px" viewBox="0 0 24 24" version="1.1" xmlns="http://www.w3.org/2000/svg" xmlns:xlink="http://www.w3.org/1999/xlink">
    <!-- Generator: Sketch 59.1 (86144) - https://sketch.com -->
    <title>search(1)</title>
    <desc>Created with Sketch.</desc>
    <g id="Page-1" stroke="none" stroke-width="1" fill="none" fill-rule="evenodd">
        <g id="Tablet" transform="translate(-199.000000, -73.000000)" fill="#A0A0A0" fill-rule="nonzero">
            <g id="Group-10" transform="translate(191.000000, 66.000000)">
                <g id="search(1)" transform="translate(8.000000, 7.000000)">
                    <path d="M23.2193684,21.8471579 L17.5107368,15.9098947 C18.9785263,14.1650526 19.7827368,11.9696842 19.7827368,9.68421053 C19.7827368,4.34442105 15.4383158,0 10.0985263,0 C4.75873684,0 0.414315789,4.34442105 0.414315789,9.68421053 C0.414315789,15.024 4.75873684,19.3684211 10.0985263,19.3684211 C12.1031579,19.3684211 14.0134737,18.7637895 15.6467368,17.616 L21.3987368,23.5983158 C21.6391579,23.848 21.9625263,23.9856842 22.3090526,23.9856842 C22.6370526,23.9856842 22.9482105,23.8606316 23.1844211,23.6332632 C23.6863158,23.1503158 23.7023158,22.3494737 23.2193684,21.8471579 Z M10.0985263,2.52631579 C14.0454737,2.52631579 17.2564211,5.73726316 17.2564211,9.68421053 C17.2564211,13.6311579 14.0454737,16.8421053 10.0985263,16.8421053 C6.15157895,16.8421053 2.94063158,13.6311579 2.94063158,9.68421053 C2.94063158,5.73726316 6.15157895,2.52631579 10.0985263,2.52631579 Z" id="Shape"></path>
                </g>
            </g>
        </g>
    </g>
</svg>